<svg width="18" height="17" viewBox="0 0 18 17" fill="none" xmlns="http://www.w3.org/2000/svg">
<path d="M16.2 0.989258H1.8C0.81 0.989258 0.00899999 1.87571 0.00899999 2.95916L0 14.7785C0 15.862 0.81 16.7484 1.8 16.7484H16.2C17.19 16.7484 18 15.862 18 14.7785V2.95916C18 1.87571 17.19 0.989258 16.2 0.989258ZM15.84 5.17529L9.477 9.52877C9.189 9.72576 8.811 9.72576 8.523 9.52877L2.16 5.17529C2.06975 5.11985 1.99073 5.04495 1.9277 4.95511C1.86467 4.86528 1.81896 4.76238 1.79332 4.65265C1.76768 4.54292 1.76265 4.42864 1.77854 4.31672C1.79443 4.2048 1.8309 4.09757 1.88575 4.00153C1.9406 3.90548 2.01269 3.82262 2.09765 3.75795C2.18262 3.69327 2.27868 3.64814 2.38005 3.62528C2.48141 3.60241 2.58595 3.6023 2.68736 3.62493C2.78876 3.64757 2.88492 3.69248 2.97 3.75697L9 7.8839L15.03 3.75697C15.1151 3.69248 15.2112 3.64757 15.3126 3.62493C15.414 3.6023 15.5186 3.60241 15.62 3.62528C15.7213 3.64814 15.8174 3.69327 15.9023 3.75795C15.9873 3.82262 16.0594 3.90548 16.1142 4.00153C16.1691 4.09757 16.2056 4.2048 16.2215 4.31672C16.2373 4.42864 16.2323 4.54292 16.2067 4.65265C16.181 4.76238 16.1353 4.86528 16.0723 4.95511C16.0093 5.04495 15.9302 5.11985 15.84 5.17529Z" fill="#FECE00"/>
</svg>
