<svg width="18" height="21" viewBox="0 0 18 21" fill="none" xmlns="http://www.w3.org/2000/svg">
<path d="M17 14.4472C15.8 14.4472 14.5 14.222 13.4 13.7718H13.1C12.8 13.7718 12.6 13.8843 12.4 14.1095L10.2 16.5859C7.4 14.8974 5 12.3084 3.6 9.15659L5.8 6.68014C6.1 6.34245 6.2 5.89218 6 5.55449C5.7 4.31626 5.5 2.85291 5.5 1.50212C5.5 0.939293 5 0.376465 4.5 0.376465H1C0.5 0.376465 0 0.939293 0 1.50212C0 12.0833 7.6 20.6383 17 20.6383C17.5 20.6383 18 20.0755 18 19.5126V15.5728C18 15.01 17.5 14.4472 17 14.4472ZM2 2.62778H3.5C3.6 3.64087 3.8 4.65396 4 5.55449L2.8 6.90527C2.4 5.55449 2.1 4.09113 2 2.62778ZM16 18.387C14.7 18.2744 13.4 17.9367 12.2 17.4864L13.4 16.1357C14.2 16.3608 15.1 16.5859 16 16.5859V18.387ZM12 10.5074H14C14 9.01466 13.4732 7.58309 12.5355 6.52758C11.5979 5.47207 10.3261 4.87909 9 4.87909V7.1304C9.79565 7.1304 10.5587 7.48619 11.1213 8.1195C11.6839 8.7528 12 9.61175 12 10.5074ZM16 10.5074H18C18 4.87909 13.97 0.376465 9 0.376465V2.62778C12.86 2.62778 16 6.15108 16 10.5074Z" fill="#FECE00"/>
</svg>
